<svg id="Capa_1" enable-background="new 0 0 510.75 510.75" height="18" viewBox="0 0 510.75 510.75" width="18" xmlns="http://www.w3.org/2000/svg"><g><g><path d="m483.25 185.906h-455.75c-11.046 0-20 8.954-20 20v245.75c0 11.046 8.954 20 20 20h191.875c3.782 16.674 18.682 29.125 36.5 29.125 17.818 0 32.718-12.451 36.5-29.125h190.875c11.046 0 20-8.954 20-20v-245.75c0-11.045-8.954-20-20-20z" fill="#b5efff"/><path d="m483.25 185.906h-20c11.046 0 20 8.954 20 20v245.75h-206.847l-3.533 15.576c-1.78 7.851-8.928 13.549-16.995 13.549s-15.214-5.698-16.996-13.549l-3.533-15.576h-207.846c-11.046 0-20-8.954-20-20v20c0 11.046 8.954 20 20 20h191.875c3.782 16.674 18.682 29.125 36.5 29.125s32.718-12.451 36.5-29.125h190.875c11.046 0 20-8.954 20-20v-245.75c0-11.045-8.954-20-20-20z" fill="#80dbff"/><path d="m255.844 433.719h209.938v-292.813h-149.938c-33.137 0-60 26.863-60 60z" fill="#fef2e2"/><path d="m445.781 140.906h20v292.812h-20z" fill="#ffe1ba"/><path d="m255.875 433.719h-209.937v-292.813h149.938c33.137 0 60 26.863 60 60v232.813z" fill="#fef2e2"/><path d="m45.938 433.719v-59.875h149.938c33.137 0 60 26.863 60 60z" fill="#feef8f"/><path d="m465.781 433.719v-59.875h-149.937c-33.137 0-60 26.863-60 60z" fill="#feef8f"/><path d="m445.781 373.844h20v59.875h-20z" fill="#ffc277"/><path d="m390.812 485.406-30-10-30 10v-81.562h60z" fill="#f88fa4"/><path d="m370.812 403.844v74.896l20 6.666v-81.562z" fill="#f05475"/><path d="m205.375 187.474c0-27.57 22.43-50 50-50s50 22.43 50 50c0 .837-.022 1.668-.063 2.495h130.063c0-99.411-80.589-180-180-180s-180 80.589-180 180h130.063c-.041-.827-.063-1.659-.063-2.495z" fill="#f88fa4"/><g fill="#f05475"><path d="m205.375 187.474c0-6.157 1.125-12.053 3.17-17.505h-132.058c-.726 6.568-1.112 13.238-1.112 20h130.063c-.041-.827-.063-1.659-.063-2.495z"/><path d="m305.375 187.474c0 .837-.022 1.668-.063 2.495h130.063c0-6.762-.385-13.432-1.112-20h-132.058c2.045 5.451 3.17 11.348 3.17 17.505z"/></g><path d="m205.375 187.474c0-27.57 22.43-50 50-50s50 22.43 50 50c0 .837-.022 1.668-.063 2.495h86.311c0-75.127-61.121-136.248-136.248-136.248s-136.248 61.12-136.248 136.248h86.311c-.041-.827-.063-1.659-.063-2.495z" fill="#feef8f"/><g fill="#ffc277"><path d="m305.375 187.474c0 .837-.022 1.668-.063 2.495h86.311c0-6.794-.507-13.47-1.471-20h-87.946c2.044 5.451 3.169 11.348 3.169 17.505z"/><path d="m205.375 187.474c0-6.157 1.125-12.053 3.17-17.505h-87.946c-.965 6.53-1.471 13.206-1.471 20h86.311c-.042-.827-.064-1.659-.064-2.495z"/></g><path d="m205.375 187.474c0-27.57 22.43-50 50-50s50 22.43 50 50c0 .837-.022 1.668-.063 2.495h42.558c0-51.002-41.493-92.495-92.495-92.495s-92.495 41.493-92.495 92.495h42.558c-.041-.827-.063-1.659-.063-2.495z" fill="#b5efff"/><g fill="#80dbff"><path d="m305.375 187.474c0 .837-.022 1.668-.063 2.495h42.558c0-6.866-.758-13.557-2.184-20h-43.481c2.045 5.451 3.17 11.348 3.17 17.505z"/><path d="m205.375 187.474c0-6.157 1.125-12.053 3.17-17.505h-43.481c-1.426 6.443-2.184 13.134-2.184 20h42.558c-.041-.827-.063-1.659-.063-2.495z"/></g></g><g><path d="m510.75 330.375v-124.469c0-15.164-12.337-27.5-27.5-27.5h-9.969v-45h-39.132c-24.045-75.829-95.092-130.937-178.774-130.937s-154.729 55.108-178.774 130.937h-38.163v45h-10.938c-15.164 0-27.5 12.336-27.5 27.5v245.75c0 15.164 12.336 27.5 27.5 27.5h186.3c6.477 17.415 23.01 29.125 42.075 29.125 19.066 0 35.6-11.709 42.075-29.125h25.362v16.656l37.5-12.5 37.5 12.5v-16.656h84.938c15.163 0 27.5-12.336 27.5-27.5v-106.344h-15v106.344c0 6.893-5.607 12.5-12.5 12.5h-84.938v-22.938h74.969v-247.812h9.969c6.893 0 12.5 5.607 12.5 12.5v124.469zm-52.469-181.969v217.938h-142.437c-21.169 0-40.084 9.803-52.469 25.099v-190.537c0-.307-.011-.613-.016-.919.296-16.889 8.72-32.551 22.443-42.143 7.463 7.662 12.073 18.115 12.073 29.629v9.995h145v-7.5c0-14.28-1.612-28.189-4.65-41.562zm-134.969 277.813h-59.409c3.705-25.347 25.582-44.875 51.94-44.875h142.438v15h-134.969zm-269.874-14.875h82.5v-15h-82.5v-15h142.438c26.359 0 48.235 19.528 51.94 44.875h-194.378zm201.937-281.37c-30.02 0-54.741 23.124-57.284 52.495h-27.361c3.812-43.365 40.308-77.495 84.645-77.495s80.833 34.131 84.645 77.495h-27.361c-2.544-29.372-27.263-52.495-57.284-52.495zm0 15c6.267 0 12.216 1.375 17.577 3.821-7.118 5.868-12.91 13.094-17.083 21.179-4.238-8.221-10.156-15.544-17.443-21.464 5.196-2.269 10.926-3.536 16.949-3.536zm0-127.505c92.604 0 168.397 73.35 172.339 165h-28.785c-3.915-75.79-66.806-136.248-143.553-136.248-24.498 0-48.703 6.301-70 18.222l7.327 13.089c19.063-10.671 40.735-16.311 62.673-16.311 68.474 0 124.626 53.734 128.524 121.248h-28.81c-3.848-51.648-47.1-92.495-99.715-92.495s-95.867 40.847-99.715 92.495h-28.809c2.279-38.67 22.072-74.653 53.931-97.381l-8.711-12.211c-35.799 25.538-57.939 66.082-60.234 109.592h-28.801c3.942-91.65 79.736-165 172.339-165zm31.011 446.687-1.325 5.841c-3.109 13.709-15.111 23.284-29.186 23.284s-26.076-9.575-29.185-23.284l-1.325-5.841h-197.865c-6.893 0-12.5-5.607-12.5-12.5v-245.75c0-6.893 5.607-12.5 12.5-12.5h10.938v76.635h15v-121.635h19.088c-3.038 13.373-4.65 27.283-4.65 41.562v7.5h145v-9.995c0-11.714 4.764-22.336 12.456-30.031 14.078 9.549 22.729 25.375 23.029 42.544-.004.307-.016.612-.016.919v190.537c-12.385-15.296-31.3-25.099-52.469-25.099h-142.438v-81.302h-15v156.177h284.875v22.938zm96.926 10.844-22.5-7.5-22.5 7.5v-63.657h45zm15-48.781v-14.875h59.969v14.875z"/><path d="m75.938 311.406h134.875v15h-134.875z"/><path d="m75.938 276.406h134.875v15h-134.875z"/><path d="m75.938 241.406h74.875v15h-74.875z"/><path d="m300.812 311.406h134.875v15h-134.875z"/><path d="m360.812 276.406h74.875v15h-74.875z"/><path d="m300.812 276.406h45v15h-45z"/><path d="m300.812 241.406h134.562v15h-134.562z"/><path d="m150.906 396.344h15.031v15h-15.031z"/></g></g></svg>